 <svg version="1.0" xmlns="http://www.w3.org/2000/svg"  width="300.000000pt" height="388.000000pt" viewBox="0 0 300.000000 388.000000"  preserveAspectRatio="xMidYMid meet">  <g transform="translate(0.000000,388.000000) scale(0.050000,-0.050000)" fill="#000000" stroke="none"> <path d="M2955 7148 c-7 -6 -49 -20 -94 -30 -104 -23 -241 -82 -241 -104 0 -9 -22 -46 -50 -82 -27 -36 -50 -88 -50 -116 0 -27 -7 -56 -15 -64 -8 -9 -15 -21 -16 -29 0 -7 -17 -61 -37 -119 -49 -145 -23 -394 71 -660 49 -141 47 -158 -18 -158 -110 1 -296 -31 -339 -58 -67 -42 -99 -34 -149 36 -70 99 -158 174 -254 217 -81 36 -185 54 -157 27 6 -7 -30 -41 -81 -75 -155 -106 -202 -224 -208 -529 -2 -70 -16 -101 -77 -166 -41 -44 -87 -104 -102 -133 -16 -29 -48 -75 -73 -101 -24 -27 -39 -57 -33 -67 5 -9 2 -17 -9 -17 -26 0 -160 -288 -194 -419 -95 -360 -26 -1324 96 -1356 19 -6 35 -22 35 -38 0 -24 35 -83 140 -237 17 -24 47 -70 68 -102 21 -32 84 -101 140 -153 l101 -95 -34 -65 c-18 -36 -39 -92 -46 -125 -31 -141 -231 -490 -339 -590 -245 -227 16 -523 386 -437 152 35 252 9 232 -59 -32 -112 3 -252 72 -285 136 -66 138 -66 275 -41 177 33 339 -3 500 -111 63 -42 124 -77 135 -77 11 0 23 -20 26 -45 11 -76 128 -83 271 -15 83 39 146 157 156 291 14 185 334 283 558 170 240 -120 397 -71 362 115 -15 81 -14 95 11 85 16 -6 33 -11 36 -11 4 0 36 -53 71 -118 69 -130 118 -162 254 -167 137 -6 204 111 124 215 -30 39 -100 272 -88 292 7 11 -1 36 -17 54 -37 42 -134 347 -134 421 -1 103 -25 253 -45 278 -13 17 -13 25 2 25 51 0 489 434 469 466 -7 11 -2 14 9 7 22 -14 105 85 105 124 0 12 11 17 26 12 31 -12 148 175 166 266 7 36 21 65 31 65 10 0 17 11 15 25 -2 14 1 39 7 55 13 34 30 107 54 240 9 50 27 144 41 210 28 141 17 306 -22 334 -21 14 -22 22 -4 29 17 7 18 24 5 58 -18 49 -38 156 -45 249 -2 28 -16 70 -30 95 -14 25 -21 54 -15 64 7 10 3 24 -9 31 -11 7 -20 41 -21 76 0 35 -13 80 -28 100 -15 20 -22 53 -17 74 12 46 -60 153 -115 170 -49 16 -50 70 -2 155 32 57 125 385 126 445 3 113 -43 280 -85 314 -322 260 -474 208 -577 -194 -59 -228 -51 -219 -132 -158 -38 29 -81 48 -97 42 -75 -29 -91 27 -58 203 32 174 7 357 -66 473 -13 22 -35 81 -48 130 -13 50 -36 110 -51 133 -15 24 -61 105 -101 180 -124 232 -150 258 -323 315 -146 49 -398 72 -430 40z m299 -95 c23 -5 66 -25 94 -43 27 -19 59 -28 70 -21 32 19 156 -129 223 -268 35 -72 75 -144 90 -161 98 -112 204 -553 161 -670 -17 -44 -35 -179 -40 -301 -7 -145 -22 -243 -44 -286 -17 -36 -27 -84 -21 -107 6 -24 3 -58 -8 -77 -61 -114 3 -399 90 -399 15 0 33 -11 39 -25 10 -20 15 -19 24 1 23 51 106 127 125 116 33 -21 128 168 134 266 3 51 8 92 10 92 3 0 6 39 8 86 1 48 14 93 27 102 14 8 51 142 83 297 77 376 114 436 248 406 229 -52 304 -196 253 -491 -39 -226 -67 -305 -202 -570 -19 -39 -34 -84 -33 -100 3 -51 -29 -160 -47 -160 -10 0 -18 -20 -18 -45 -1 -82 -22 -127 -76 -161 -30 -18 -43 -33 -30 -33 32 -1 -8 -121 -41 -121 -25 0 -73 -90 -73 -135 0 -16 -10 -21 -23 -13 -17 10 -20 -6 -11 -59 9 -56 5 -73 -17 -73 -16 0 -29 -8 -29 -18 0 -10 -21 -38 -47 -63 -40 -38 -45 -57 -32 -114 9 -37 11 -63 5 -58 -30 31 -71 -57 -70 -153 0 -57 -10 -122 -22 -144 -37 -71 -46 -243 -26 -513 13 -167 12 -173 -32 -187 -44 -13 -44 -15 -6 -24 67 -16 70 -29 82 -297 7 -143 17 -266 22 -275 5 -9 17 -99 26 -200 9 -101 31 -211 48 -244 17 -33 32 -80 32 -105 0 -25 7 -45 16 -45 18 0 66 -133 105 -290 14 -55 39 -116 56 -136 48 -56 7 -104 -88 -104 -73 0 -81 7 -146 117 -52 87 -91 127 -155 158 -141 69 -273 400 -297 745 -6 88 -16 237 -22 330 -7 94 -20 202 -30 240 -11 39 -19 104 -19 145 0 44 -10 75 -23 75 -13 0 -18 -6 -11 -13 7 -7 4 -29 -7 -49 -29 -53 44 -890 94 -1088 27 -105 115 -291 201 -423 16 -25 26 -78 22 -119 -7 -85 -126 -115 -236 -59 -150 77 -189 85 -324 69 -130 -16 -240 -56 -266 -98 -33 -53 -46 0 -60 235 -8 140 -18 305 -21 365 -26 434 -3 1196 41 1345 24 82 24 95 -1 95 -78 0 -108 -142 -122 -585 -4 -157 -9 -303 -11 -325 -4 -70 24 -777 34 -860 53 -439 51 -511 -20 -612 -81 -115 -157 -140 -213 -69 -22 29 -74 70 -114 92 -40 22 -100 58 -133 79 -87 55 -333 98 -534 94 -194 -4 -222 9 -245 120 -11 49 -4 73 28 105 22 22 41 54 41 71 0 49 102 289 173 407 37 61 84 156 105 212 21 55 60 151 88 211 160 351 207 520 147 520 -31 0 -73 -83 -73 -144 0 -23 -24 -92 -53 -154 -29 -62 -78 -166 -109 -232 -31 -66 -72 -163 -90 -215 -18 -52 -63 -141 -100 -199 -37 -57 -81 -152 -99 -211 -34 -118 -61 -139 -145 -109 -37 12 -118 12 -235 0 -211 -24 -307 4 -359 104 l-31 60 148 175 c82 96 155 198 163 225 9 28 36 91 60 140 25 50 75 167 111 260 36 94 75 182 87 198 11 15 23 58 26 96 2 38 15 82 27 98 13 15 16 28 7 28 -9 0 -5 11 8 24 13 13 24 36 24 51 0 14 32 93 70 174 39 81 76 178 84 214 7 36 25 88 39 116 15 28 27 65 27 83 0 17 7 38 15 46 17 17 23 109 24 342 0 251 -22 345 -122 515 -31 53 -57 105 -57 116 0 28 -35 23 -48 -6 -6 -14 -6 -1 0 28 7 30 -6 94 -29 150 -22 53 -50 147 -63 207 -13 61 -37 148 -54 194 -17 47 -27 107 -21 134 5 30 0 48 -13 46 -12 -2 -22 19 -23 46 0 28 -8 71 -16 96 -58 165 89 544 210 544 16 0 39 10 52 23 88 88 360 -300 313 -448 -7 -23 0 -35 19 -35 22 0 34 -32 43 -115 6 -63 18 -137 24 -165 7 -27 13 -59 14 -70 12 -119 145 -294 256 -336 108 -39 276 172 280 350 1 36 10 82 20 102 12 23 10 62 -6 110 -13 40 -26 186 -28 324 -2 185 -15 294 -47 420 -179 684 120 1127 671 993z m-765 -1514 c22 -21 30 -39 18 -39 -12 0 -33 14 -47 30 -36 43 -58 37 -45 -13 12 -46 -10 -41 -80 19 -32 27 -35 26 -35 -14 0 -24 7 -40 16 -34 9 5 28 2 43 -7 20 -13 16 -20 -15 -30 -47 -15 -39 -71 10 -71 16 0 42 -13 58 -29 16 -16 41 -25 56 -19 65 25 75 -289 11 -353 -47 -47 -138 -2 -133 66 3 35 17 42 74 37 19 -2 31 16 33 48 1 27 -8 50 -20 50 -13 0 -10 9 6 19 45 28 -9 116 -71 116 l-47 0 40 -50 c46 -59 50 -85 11 -85 -15 0 -33 -20 -39 -45 -19 -74 -51 -15 -62 115 -14 158 -25 223 -40 248 -80 129 135 163 258 41z m-320 -10 c65 -70 59 -301 -6 -261 -11 7 -16 43 -11 81 4 38 -1 74 -13 81 -11 8 -15 31 -8 52 6 21 2 38 -10 38 -11 0 -21 14 -21 30 0 42 15 38 69 -21z m2016 -84 c-10 -65 -45 -92 -45 -35 0 27 43 114 52 104 2 -2 -1 -33 -7 -69z m-127 35 c-3 -6 6 -31 20 -56 18 -33 19 -54 4 -72 -12 -14 -15 -33 -7 -42 8 -9 4 -10 -10 -2 -15 9 -25 2 -25 -17 0 -35 -17 -39 -57 -13 -21 13 -20 19 5 29 18 6 32 22 32 34 0 12 -11 15 -25 6 -15 -8 -13 1 5 22 16 20 27 59 23 86 -4 31 2 47 17 42 13 -5 21 -12 18 -17z m-1467 -354 c-26 -69 -43 2 -23 98 l22 106 6 -87 c4 -48 2 -101 -5 -117z m1462 57 c0 -47 -8 -58 -46 -58 -37 0 -47 11 -47 50 0 40 8 48 40 39 22 -6 40 -2 40 8 0 10 3 18 7 18 3 0 6 -26 6 -57z m-2667 -68 c-17 -28 -20 -38 -23 -94 -2 -31 -12 -37 -44 -24 -53 19 -54 36 -9 95 37 49 106 70 76 23z m2474 -91 c0 -30 14 -75 31 -100 41 -58 16 -57 -32 1 -40 48 -53 155 -19 155 11 0 20 -25 20 -56z m144 21 c13 -49 -2 -85 -36 -85 -18 0 -28 22 -28 60 0 66 49 85 64 25z m-2673 -100 c31 -22 33 -125 3 -125 -64 0 -104 -53 -68 -89 19 -19 34 -50 34 -69 0 -24 25 -43 78 -59 76 -23 152 -83 104 -83 -12 0 -22 -14 -22 -31 0 -17 8 -26 18 -20 26 16 56 -31 68 -109 18 -111 49 -233 52 -202 1 22 11 20 40 -10 46 -47 22 -80 -36 -49 -28 15 -42 15 -42 2 0 -12 14 -21 30 -21 36 0 40 -32 5 -48 -14 -6 0 -5 30 1 49 10 55 5 55 -39 0 -48 -4 -50 -65 -33 -81 24 -75 24 -75 -11 0 -16 11 -30 23 -30 13 0 18 -6 11 -12 -7 -7 1 -26 17 -42 33 -33 22 -66 -22 -66 -16 0 -29 -9 -29 -20 0 -11 11 -20 23 -20 13 0 18 -6 10 -14 -7 -7 8 -36 34 -65 55 -59 92 -141 47 -104 -15 12 -34 16 -42 9 -7 -8 -19 6 -25 30 -6 24 -19 39 -28 33 -10 -6 -12 -25 -5 -43 9 -23 5 -28 -13 -17 -19 12 -22 5 -12 -26 10 -33 7 -40 -16 -32 -16 7 -35 2 -42 -10 -7 -11 1 -21 18 -21 17 0 31 -9 31 -20 0 -31 54 -24 67 8 6 16 27 26 47 22 20 -4 50 -8 66 -9 24 -2 23 -8 -6 -30 -22 -16 -28 -32 -16 -40 38 -23 -54 -148 -104 -139 -25 5 -32 3 -14 -5 79 -36 91 -105 12 -75 -56 22 -34 -12 23 -36 36 -15 45 -25 25 -30 -38 -9 -84 -101 -55 -111 26 -9 -23 -90 -64 -106 -16 -6 -40 3 -53 20 -18 25 -34 28 -76 12 -70 -27 -66 -56 13 -79 36 -10 54 -19 41 -20 -14 -1 -21 -13 -16 -27 17 -46 -21 -78 -75 -64 -44 11 -72 50 -82 116 -2 9 -21 29 -42 45 -30 22 -33 34 -15 52 30 30 31 56 3 56 -35 0 -79 54 -79 97 0 23 -9 46 -20 53 -33 20 -24 76 10 63 52 -20 90 9 90 69 0 43 -10 58 -37 58 -44 0 -49 60 -5 61 24 1 21 9 -13 32 -65 45 -60 92 6 67 51 -20 51 -20 15 28 -29 38 -42 43 -65 25 -22 -18 -25 -17 -14 2 9 14 6 25 -4 25 -11 0 -26 -18 -33 -39 -12 -37 -15 -37 -71 13 -53 48 -56 56 -29 86 16 18 30 44 30 58 0 13 9 19 20 12 12 -7 15 -22 9 -32 -19 -31 31 -78 83 -78 60 0 62 31 3 62 -24 14 -57 37 -72 52 -20 20 -34 22 -53 6 -34 -28 -64 14 -33 45 16 16 16 29 0 49 -16 19 -15 35 6 59 21 26 21 35 2 42 -14 5 -24 23 -23 42 0 18 5 23 11 10 13 -32 74 -12 103 34 18 30 19 39 1 39 -13 0 -18 6 -11 13 7 7 5 27 -5 45 -25 47 25 109 75 93 54 -17 76 45 29 81 -19 15 -43 27 -53 27 -10 1 -3 17 15 38 18 20 33 47 33 60 0 13 10 40 23 61 19 30 16 47 -19 92 -45 57 -84 30 -57 -40 16 -41 -7 -38 -39 5 -65 85 -2 257 82 225 27 -10 49 -12 47 -4 -6 43 6 91 18 74 18 -24 107 -30 93 -6 -6 9 -1 16 11 16 13 0 17 20 9 50 -12 50 3 63 43 35z m1088 -37 c4 -5 -3 -20 -16 -33 -27 -27 -84 -2 -99 44 -9 25 88 15 115 -11z m2324 -133 c-35 -35 -78 13 -46 51 12 15 17 33 11 40 -7 6 -5 23 4 38 12 18 22 6 35 -40 14 -46 12 -73 -4 -89z m-3343 -5 c29 -35 11 -97 -24 -85 -14 4 -31 30 -38 56 -8 27 -15 37 -16 23 -1 -15 -12 -20 -24 -13 -16 10 -14 19 5 31 40 25 69 22 97 -12z m3446 -126 c-2 -46 5 -84 15 -84 11 0 19 -16 19 -36 0 -20 10 -46 23 -59 14 -14 16 -48 6 -99 -10 -42 -17 -85 -18 -96 -1 -11 -23 -31 -51 -43 -44 -21 -45 -24 -10 -27 40 -3 40 -3 0 -19 -58 -24 -90 15 -41 50 38 28 32 53 -15 61 -13 2 -40 10 -59 18 -37 15 -82 -61 -58 -100 7 -11 17 5 23 36 9 51 13 54 49 27 43 -31 7 -93 -56 -93 -19 0 -26 -13 -19 -40 6 -22 20 -40 31 -40 11 0 14 -28 6 -70 -11 -61 -8 -70 28 -70 23 0 41 -12 41 -27 0 -19 16 -24 50 -18 64 12 86 45 30 45 -23 0 -37 9 -31 19 20 32 -11 118 -46 129 -18 6 -9 8 20 4 36 -4 50 2 44 19 -5 13 13 30 42 37 28 7 51 26 51 42 0 17 12 24 28 18 23 -9 25 -24 8 -71 -14 -39 -31 -56 -49 -48 -16 6 -24 2 -18 -8 6 -10 -3 -32 -21 -50 -18 -18 -26 -39 -18 -47 9 -8 20 -3 24 11 5 14 19 19 31 12 12 -8 15 -4 7 10 -8 13 -1 29 18 36 43 16 58 -3 34 -45 -11 -20 -12 -59 -3 -91 10 -35 9 -57 -4 -57 -10 0 -13 -10 -6 -21 7 -12 28 -17 46 -10 20 7 15 -4 -13 -28 -29 -24 -47 -63 -48 -100 -2 -61 -43 -84 -63 -36 -7 19 -15 18 -31 -5 -26 -36 -26 -34 -31 75 -3 65 -15 94 -52 120 -100 73 -159 104 -159 85 0 -11 9 -20 19 -20 11 0 14 -16 7 -35 -11 -30 -9 -31 18 -10 25 21 35 20 56 -5 25 -30 7 -41 -47 -32 -40 7 5 -48 47 -58 26 -6 51 -24 56 -39 7 -19 -1 -23 -23 -15 -41 16 -43 -19 -3 -59 17 -16 30 -24 30 -17 0 7 9 7 20 0 12 -7 15 -22 8 -33 -7 -12 -27 -6 -50 15 -36 32 -38 32 -41 -4 -8 -106 -5 -168 8 -168 16 0 22 31 16 76 -2 18 13 21 53 12 68 -16 108 -48 61 -48 -20 0 -30 -11 -23 -27 6 -16 -4 -42 -21 -59 -37 -38 -40 -56 -6 -44 46 17 78 -21 64 -77 -15 -59 -29 -65 -67 -28 -22 20 -24 17 -13 -20 10 -33 0 -57 -38 -92 -28 -26 -51 -62 -51 -80 0 -38 -39 -45 -41 -8 -1 14 -10 3 -21 -25 -11 -27 -15 -70 -9 -95 7 -25 3 -45 -9 -45 -11 0 -20 16 -21 35 0 33 -1 33 -20 1 -23 -39 -161 -39 -175 1 -4 12 -15 23 -25 23 -10 0 -13 -13 -6 -30 6 -16 1 -30 -12 -30 -77 0 -100 -92 -40 -161 29 -34 37 -63 29 -98 -18 -71 -50 -100 -50 -45 0 52 -30 58 -49 11 -10 -26 -18 -28 -36 -10 -19 19 -19 28 1 40 25 16 24 90 -2 116 -28 28 -14 66 21 55 23 -8 16 6 -20 39 -73 68 -78 192 -9 224 35 16 52 15 70 -4 32 -34 30 -54 -3 -41 -37 14 -90 -21 -62 -41 49 -34 51 -88 4 -76 l-45 11 46 -23 c57 -30 109 6 68 47 -33 33 -30 63 5 49 49 -19 52 16 9 96 -31 58 -35 81 -17 103 13 15 18 50 10 79 -8 34 -5 48 8 39 19 -11 32 89 22 165 -1 14 5 55 16 92 14 53 11 76 -19 115 -29 38 -37 41 -38 14 0 -18 8 -39 18 -45 23 -14 4 -91 -23 -91 -11 0 -9 -13 5 -30 16 -19 17 -30 4 -30 -22 0 -84 77 -84 104 0 9 15 16 32 16 25 0 30 14 24 60 -8 52 -3 60 37 60 30 0 47 -12 47 -32 0 -59 50 -15 53 47 3 49 -3 60 -28 50 -24 -9 -29 -3 -18 23 7 19 13 52 13 73 0 24 10 34 27 27 21 -8 25 3 18 43 -14 73 37 57 57 -17 8 -30 7 -50 -2 -44 -9 5 -21 -4 -27 -20 -17 -43 8 -152 31 -138 10 7 13 38 6 70 -10 41 -6 58 13 58 17 0 29 -31 33 -85 3 -47 14 -93 25 -104 33 -33 21 -57 -14 -29 -29 25 -31 23 -19 -17 15 -47 0 -56 -45 -27 -17 11 -22 33 -14 60 8 23 6 42 -4 42 -15 0 -85 -196 -85 -241 0 -10 10 -19 21 -19 12 0 16 8 10 19 -6 10 -1 42 13 71 26 58 76 25 76 -49 -1 -27 -3 -27 -21 -1 -17 25 -20 23 -17 -10 5 -58 -25 -210 -41 -210 -8 0 -24 -22 -37 -48 -35 -78 25 -84 64 -6 30 61 32 62 44 19 7 -25 28 -45 48 -45 20 0 41 -14 48 -31 6 -17 20 -26 31 -20 10 7 26 -2 36 -19 15 -26 22 -23 45 19 28 54 10 100 -20 51 -15 -24 -26 -21 -67 18 -28 25 -60 40 -72 33 -42 -26 -20 47 23 78 25 17 33 31 18 31 -19 0 -22 14 -12 45 7 25 14 79 13 120 0 42 7 71 16 65 9 -5 23 6 30 25 7 19 4 37 -8 41 -11 4 -21 16 -21 26 0 12 14 12 37 -1 45 -23 71 -5 42 30 -11 14 -38 20 -60 15 -24 -7 -40 0 -41 17 0 15 -3 59 -6 97 -3 39 0 79 6 90 22 42 13 86 -22 108 -22 14 -36 15 -36 2 0 -11 -13 -20 -29 -20 -24 0 -31 60 -13 117 1 5 17 -4 35 -19 29 -24 31 -23 20 12 -6 22 -3 54 7 70 15 23 19 15 20 -33 0 -37 12 -67 30 -74 17 -7 30 -3 30 8 0 10 -10 19 -21 19 -30 0 -14 69 16 73 47 4 50 7 28 33 -16 20 -14 38 9 71 20 28 27 64 20 94 -9 35 -2 55 26 72 21 13 34 35 29 47 -9 23 46 83 62 68 8 -9 17 -94 13 -134 -1 -15 -11 -21 -21 -15 -10 7 -28 -6 -40 -27 -30 -57 -26 -76 7 -31 28 37 29 37 43 -16 7 -30 21 -50 29 -45 9 6 21 -1 26 -15 4 -14 15 -19 23 -12 8 8 3 34 -10 59 -18 34 -19 48 -2 54 17 5 17 19 -1 51 -13 23 -25 71 -26 106 -2 35 -18 78 -37 97 -43 43 -26 69 42 63 51 -4 55 -11 51 -89z m-186 -34 c0 -16 -9 -30 -20 -30 -11 0 -20 -13 -20 -30 0 -16 -9 -30 -20 -30 -11 0 -20 14 -20 30 0 17 9 30 20 30 11 0 20 14 20 30 0 17 9 30 20 30 11 0 20 -13 20 -30z m-3616 -163 c12 -16 -1 -41 -38 -75 -49 -46 -52 -57 -30 -93 28 -44 17 -79 -25 -79 -61 0 -51 230 11 246 21 6 39 27 40 47 1 28 4 30 12 7 6 -16 20 -40 30 -53z m3980 -467 c6 -38 0 -60 -14 -60 -13 0 -25 27 -26 60 -1 33 6 60 15 60 9 0 20 -27 25 -60z m-3246 -67 c19 -35 18 -58 -4 -111 -34 -80 -47 -65 -65 75 -15 113 19 131 69 36z m2482 -83 c-12 -31 -27 -50 -34 -43 -7 7 -24 3 -39 -10 -34 -28 -35 -3 -2 34 14 15 37 42 52 60 38 44 48 25 23 -41z m-2600 -120 c0 -16 14 -30 30 -30 17 0 30 9 30 20 0 11 9 20 20 20 11 0 20 -22 20 -50 0 -58 -40 -66 -84 -15 -47 55 -60 85 -37 85 11 0 21 -13 21 -30z m3280 -99 c0 -16 -10 -35 -22 -42 -12 -8 -17 -39 -11 -71 14 -66 -52 -125 -74 -68 -7 17 -4 30 6 30 36 0 47 85 13 104 -17 10 -32 28 -32 41 0 17 6 17 24 -1 33 -33 57 -30 43 6 -7 19 1 30 21 30 18 0 32 -13 32 -29z m-4000 -95 c0 -68 -26 -58 -49 19 -10 33 -6 45 18 45 22 0 31 -19 31 -64z m3254 -3 c-6 -14 11 -43 38 -62 54 -41 62 -71 20 -71 -19 0 -25 -14 -17 -42 9 -37 6 -40 -28 -22 -51 28 -63 224 -14 224 6 0 7 -12 1 -27z m-3122 -61 c-11 -56 -6 -69 28 -78 22 -5 40 -19 40 -30 0 -26 -88 -48 -97 -23 -3 10 -22 19 -40 19 -23 0 -33 15 -31 45 4 65 29 117 50 104 10 -6 18 -2 18 10 0 11 10 21 22 21 15 0 18 -24 10 -68z m3428 -583 c0 -25 -65 -107 -93 -118 -38 -14 -20 88 20 113 27 18 73 21 73 5z"/> <path d="M3125 6295 c-41 -50 -64 -375 -34 -476 5 -16 32 -32 60 -34 70 -6 90 49 122 337 16 148 -79 258 -148 173z"/> <path d="M3546 6245 c-6 -19 -29 -73 -49 -119 -53 -119 -41 -273 28 -361 40 -50 135 64 118 141 -2 9 10 30 27 47 34 34 41 196 10 276 -23 61 -114 72 -134 16z"/> <path d="M3241 5198 c-152 -82 -261 -258 -261 -424 0 -354 268 -458 445 -172 207 335 82 739 -184 596z m227 -147 c31 -74 22 -154 -15 -139 -19 7 -38 208 -20 208 4 0 19 -31 35 -69z m-228 -72 c0 -11 11 -19 25 -18 61 8 76 -1 58 -36 -9 -19 -16 -56 -13 -82 2 -26 -8 -51 -23 -57 -15 -6 -28 -39 -29 -73 0 -35 -6 -51 -12 -37 -7 19 -17 20 -36 4 -18 -15 -28 -13 -37 9 -6 17 -2 31 9 31 12 0 17 11 12 25 -5 14 -18 23 -28 21 -16 -3 -21 132 -6 149 6 6 14 37 18 65 3 27 62 26 62 -1z m177 -159 c13 -36 13 -60 2 -60 -10 0 -19 18 -19 40 0 22 -13 40 -29 40 -18 0 -25 12 -18 30 15 40 39 22 64 -50z m-182 -300 c14 0 25 -9 25 -20 0 -33 -93 -23 -123 13 -24 31 -22 33 23 21 28 -8 61 -14 75 -14z"/> <path d="M3194 4926 c-6 -9 -3 -48 6 -86 9 -39 17 -55 18 -37 1 19 9 37 18 40 9 4 5 28 -8 54 -13 25 -28 39 -34 29z"/> <path d="M4005 4747 c-53 -59 -55 -67 -17 -67 37 0 77 51 69 88 -5 23 -18 18 -52 -21z"/> <path d="M3617 3606 c-11 -55 -6 -126 9 -126 9 0 14 16 11 35 -3 19 1 46 9 59 8 13 6 29 -6 36 -11 7 -21 5 -23 -4z"/> <path d="M3591 3335 c-8 -19 -8 -60 0 -90 15 -52 17 -52 24 -10 13 73 -4 144 -24 100z"/> <path d="M3600 3180 c-13 -94 -14 -220 -1 -220 23 0 39 163 19 200 -9 17 -17 26 -18 20z"/> <path d="M1299 4551 c20 -23 16 -45 -20 -109 -40 -70 -42 -85 -17 -114 22 -27 22 -36 3 -43 -14 -5 -20 -17 -13 -28 6 -11 3 -44 -9 -73 -62 -166 -17 -286 74 -195 37 37 13 70 -40 56 -38 -10 -42 -5 -30 37 7 26 13 55 13 63 0 8 12 15 26 15 14 0 25 17 25 39 0 21 -7 34 -15 28 -22 -13 -20 8 5 54 15 28 14 39 -3 39 -17 0 -17 7 -1 27 13 15 17 33 9 40 -7 7 0 13 15 13 20 0 21 6 5 22 -32 32 -10 78 36 78 21 0 38 10 38 21 0 12 -8 16 -18 10 -11 -6 -32 2 -49 19 -39 38 -66 39 -34 1z"/> <path d="M1070 3940 c-16 -26 27 -104 51 -89 10 6 19 3 19 -6 0 -10 15 -18 33 -18 23 0 18 10 -19 37 -31 22 -47 50 -41 67 13 32 -24 40 -43 9z"/> <path d="M1467 3925 c2 -19 -8 -33 -22 -30 -32 6 -32 -20 -1 -51 33 -33 56 -30 56 6 0 17 9 30 21 30 14 0 14 13 -1 40 -26 49 -57 52 -53 5z"/> <path d="M1253 3775 c5 -8 0 -15 -11 -15 -11 0 -16 -13 -10 -29 6 -16 22 -25 35 -21 12 3 48 12 78 19 80 17 67 46 -23 54 -43 4 -74 1 -69 -8z"/> <path d="M1360 3683 c0 -10 14 -24 30 -30 17 -7 30 -26 30 -44 0 -17 -8 -26 -18 -20 -9 6 -22 -7 -28 -29 -6 -22 -2 -40 8 -40 10 0 18 9 18 20 0 11 12 20 27 20 40 0 17 97 -29 121 -22 12 -38 13 -38 2z"/> <path d="M1273 3646 c-30 -30 -10 -66 37 -66 28 0 50 9 50 19 0 25 -71 63 -87 47z"/> <path d="M1358 3438 c-66 -67 -69 -74 -35 -95 58 -37 95 -29 83 18 -7 26 2 51 24 67 24 17 30 35 18 54 -14 22 -33 13 -90 -44z"/> <path d="M1321 3250 c-1 -46 -6 -53 -20 -30 -15 22 -25 24 -42 7 -18 -18 -13 -29 17 -45 35 -19 39 -31 23 -87 -25 -84 -24 -100 4 -91 12 4 25 34 29 67 4 32 10 82 14 110 4 28 1 68 -8 90 -12 32 -15 28 -17 -21z"/> <path d="M1440 3261 c0 -23 -13 -41 -30 -41 -41 0 -38 -53 4 -69 39 -15 109 60 101 109 -9 48 -75 50 -75 1z"/> <path d="M4846 3788 c-2 -53 4 -65 23 -49 13 11 31 15 38 7 7 -7 13 7 13 31 0 24 2 49 5 56 3 7 -13 16 -36 19 -35 6 -41 -5 -43 -64z"/> <path d="M4631 3430 c-8 -22 -22 -56 -33 -75 -13 -26 -11 -35 10 -35 15 0 42 -23 61 -51 18 -27 42 -45 53 -38 11 7 -4 34 -35 60 -49 42 -52 51 -26 74 65 54 94 104 46 78 -34 -17 -46 -17 -53 2 -6 16 -15 10 -23 -15z"/> <path d="M4501 3165 c-1 -25 -9 -45 -19 -45 -10 0 -14 -17 -8 -37 7 -28 -4 -41 -42 -51 -67 -17 -48 -65 26 -65 70 0 118 144 70 208 -25 32 -27 32 -27 -10z"/> </g> </svg> 